  <svg
    xmlns="http://www.w3.org/2000/svg"
    width="191"
    height="201"
    fill="none"
  >
    <path
      fill="#FFF"
      opacity="0.2"
      d="M190.276 72.336c-1.168-12.383-4.056-23.715-10.134-33.106-6.079-9.39-17.853-14.338-28.708-17.068-10.855-2.731-19.935-.154-27.802 7.8-8.246 8.331-10.752 21.15-13.068 32.645-2.316 11.495-6.759 26.392-16.113 33.48-10.639 8.075-27.351 3.708-40.554 1.694-13.203-2.014-27.825-3.96-38.959 3.42-9.13 6.056-13.748 17.574-13.19 28.514.56 10.941 3.93 21.057 9.441 30.528 7.584 13.068 29.951 28.915 45.01 24.099l64.941-3.659c12.243-5.619 9.463 3.05 29.442-8.584 11.644-6.759 29.6-31.299 34.877-48.169 4.632-14.803 6.267-36.157 4.817-51.594ZM60.936 4.133l-4.132-1.721C40.559-3.095 20.778 6.264 14.735 22.319 8.694 38.374 17.382 58.453 33.21 65.032c15.83 6.578 36.201-1.438 43.307-17.051 7.106-15.613-.198-36.224-15.581-43.848Z"
    />
    <path
      fill="#263238"
      d="m126.457 200.248-62.133-.023a13.518 13.518 0 0 1-13.518-13.518l.027-155.763a13.517 13.517 0 0 1 13.545-13.518l62.128.036a13.517 13.517 0 0 1 13.518 13.518l-.027 155.727a13.523 13.523 0 0 1-3.959 9.581 13.514 13.514 0 0 1-9.581 3.96Z"
    />
    <path
      fill="#fff"
      d="M126.439 22.923H114.39a2.997 2.997 0 0 0-2.925 3.046v2.185a2.99 2.99 0 0 1-.828 2.135 3 3 0 0 1-2.096.92h-23.48a2.993 2.993 0 0 1-2.925-3.059v-2.199a3.001 3.001 0 0 0-2.924-3.06H64.427a9.462 9.462 0 0 0-9.485 9.463l-.031 152.037a9.46 9.46 0 0 0 9.462 9.463l62.012.036a9.456 9.456 0 0 0 6.691-2.772 9.451 9.451 0 0 0 2.771-6.691l.032-152.041a9.462 9.462 0 0 0-9.44-9.463Z"
    />
    <path
      fill="#455A64"
      d="M102.453 159.405a3.754 3.754 0 0 1-.653.045l-1.775.036c-1.496.023-3.57.036-5.858.036-2.29 0-4.362 0-5.858-.036l-1.775-.036a3.76 3.76 0 0 1-.654-.045c.216-.036.435-.051.654-.045l1.775-.04c1.496 0 3.569-.032 5.858-.032 2.289 0 4.357 0 5.858.032l1.775.04c.219-.007.438.008.653.045ZM128.485 163.479c0 .067-9.539.117-21.305.117-11.765 0-21.304-.05-21.304-.117 0-.068 9.54-.117 21.304-.117 11.766 0 21.305.054 21.305.117ZM115.169 167.331c0 .068-6.556.118-14.644.118-8.088 0-14.649-.05-14.649-.118 0-.067 6.556-.117 14.649-.117s14.644.036 14.644.117Z"
    />
    <path
      fill="#263238"
      d="m94.077 174.284-.45-.207a1.196 1.196 0 0 1-1.677-1.324 1.191 1.191 0 0 1 1.3-.943 1.195 1.195 0 0 1 .737 2.005l.09.469Zm-1.086-2.532a1.208 1.208 0 0 0-1.128 1.22 1.213 1.213 0 0 0 1.15 1.199c.206-.014.406-.077.582-.184l.347.153-.081-.338a1.211 1.211 0 0 0 .212-1.307 1.205 1.205 0 0 0-1.113-.716l.031-.027ZM97.078 174.09l-.532-1.306-1.005-.902h2.434l-.897 2.208Zm-1.311-2.131.856.784.45 1.113.767-1.915-2.073.018Z"
    />
    <path
      fill="#263238"
      d="m97.924 171.853-1.33.865.05.076 1.329-.865-.05-.076Z"
    />
    <path
      fill="#7E57C2"
      d="M90.242 172.135a.749.749 0 0 0-.762-.6.752.752 0 0 0-.72.649.75.75 0 0 0-.732-.65.756.756 0 0 0-.755.623c-.035.26.031.523.184.735.153.208.331.396.532.559.275.238.523.45.793.703.27-.244.496-.474.766-.717.198-.166.374-.357.523-.568a.999.999 0 0 0 .171-.734Z"
    />
    <path
      fill="#263238"
      d="M132.04 178.146v-1.658c0-1.086 0-2.704-.023-4.759 0-4.141-.022-10.165-.04-17.722l.077.077-72.056.04.117-.117v24.139l-.112-.113 51.562.05 15.05.031h5.461-5.394l-15.027.032-51.639.054H59.9v-24.31h.126l72.056.041h.076v.076c0 7.575-.031 13.617-.04 17.772V177.736c0 .279-.077.41-.077.41Z"
    />
    <path
      fill="#EBEBEB"
      d="m62.982 158.043-.092 15.96 19.961.115.092-15.96-19.96-.115Z"
    />
    <path
      fill="#263238"
      d="M82.938 158.148h-5.569l-14.42-.031.108-.104-.076 15.956c.023.031-.22-.221-.117-.117h5.429l5.182.031 9.346.068-.095.099c.045-4.795.086-8.769.117-11.563 0-1.387.032-2.478.04-3.239v-1.158V174.144h-.098l-9.346-.036-5.181-.027h-5.43l-.122-.121c.04-5.764.072-11.207.104-15.956v-.108h.108l14.464.13 4.055.054h1.338l.163.068Z"
    />
    <path
      fill="#E0E0E0"
      d="m63.665 159.052-.08 13.95 18.56.107.08-13.95-18.56-.107Z"
    />
    <path
      fill="#FFF"
      opacity="0.2"
      d="m63.576 172.991 6.533-8.634 3.984 5.448 2.74-2.884 5.303 6.178-18.56-.108ZM75.837 163.33a1.462 1.462 0 0 1-1.757 1.431 1.467 1.467 0 0 1-.514-2.658 1.468 1.468 0 0 1 2.162.667c.073.178.11.368.109.56Z"
    />
    <path
      fill="#263238"
      d="M96.636 54.623a.649.649 0 0 1-.216 0l-.608.022-2.253.04c-1.897 0-4.506.032-7.417.032-2.91 0-5.52 0-7.417-.031l-2.253-.04-.613-.023a.602.602 0 0 1-.212 0 .782.782 0 0 1 .212-.023h.613l2.253-.036c1.897-.022 4.506-.036 7.417-.036 2.91 0 5.52 0 7.417.036l2.253.036h.608a.842.842 0 0 1 .216.023ZM76.17 142.246l-.901-.41a2.324 2.324 0 1 1 .707-.509l.194.919Zm-2.15-4.979a2.386 2.386 0 0 0-1.676.711 2.381 2.381 0 0 0 1.717 4.048 2.485 2.485 0 0 0 1.145-.361l.04-.022.676.302-.153-.667.031-.032a2.375 2.375 0 0 0-1.78-3.979ZM82.082 141.854l-1.055-2.572-1.973-1.803 4.794-.036-1.766 4.411ZM79.5 137.65l1.685 1.546.901 2.19 1.505-3.767-4.091.031Z"
    />
    <path
      fill="#263238"
      d="m83.753 137.435-2.614 1.701.096.147 2.614-1.701-.096-.147Z"
    />
    <path
      fill="#7E57C2"
      d="M68.627 138.042a1.482 1.482 0 0 0-2.924.095 1.481 1.481 0 0 0-2.925-.05c-.067.51.063 1.026.365 1.442.303.411.655.782 1.05 1.104.536.451 1.028.902 1.564 1.384.522-.478.973-.929 1.5-1.411.39-.327.736-.703 1.032-1.117.293-.422.414-.939.338-1.447Z"
    />
    <path
      fill="#EBEBEB"
      d="M68.19 57.876a3.253 3.253 0 1 0 0-6.507 3.253 3.253 0 0 0 0 6.507Z"
    />
    <path
      fill="#455A64"
      d="M124.898 124.186c0 .068-13.635.122-30.452.122-16.816 0-30.456-.054-30.456-.122 0-.067 13.635-.117 30.456-.117 16.821 0 30.452.054 30.452.117ZM124.898 119.117c0 .063-13.635.117-30.452.117-16.816 0-30.456-.054-30.456-.117S77.625 119 94.446 119c16.821 0 30.452.054 30.452.117ZM97.14 129.328c0 .063-7.42.117-16.572.117s-16.578-.054-16.578-.117 7.422-.117 16.578-.117c9.156 0 16.573.054 16.573.117Z"
    />
    <path
      fill="#263238"
      d="M93.054 184.585a1.294 1.294 0 0 1-.818 1.183 1.296 1.296 0 1 1 .726-1.684c.063.159.095.329.092.501Z"
    />
    <path fill="#E0E0E0" d="M132.473 61.057H60.408v44.069h72.065V61.057Z" />
    <path
      fill="#FFF"
      opacity="0.2"
      d="M67.064 105.14 87.71 77.5l12.806 17.285 8.674-9.246 17.019 19.583-59.145.018ZM105.941 74.107a4.654 4.654 0 0 1-2.873 4.308 4.659 4.659 0 1 1 2.873-4.308Z"
    />
    <path
      fill="#263238"
      d="M132.279 146.086c0-.942-.045-40.753-.109-99.691l.109.108H60.223l.117-.117v99.691l-.099-.095 72.065.095-72.065.099h-.094v-.099c0-27.906 0-62.409-.023-99.691v-.117h72.29v.103l-.054 71.997c0 8.769-.023 15.695-.027 20.435v6.795c0 .315-.054.487-.054.487Z"
    />
    <path
      fill="#FFBE9D"
      d="m98.398 158.455 1.595-5.358c.28-1.163.649-2.532 1.145-4.096.45-1.406 1.595-2.884 2.64-3.947 1.627-1.654 2.402-1.663 3.492-2.542.099-.063.212-.157.307-.207.206-.112.387-.266.531-.451.942-1.018.037-2.6-1.879-2.446-1.437.112-3.789.522-7.61 4.465-.05.063-.1.113-.144.171-2.005 2.609-3.889-4.835-4.231-7.606a2.903 2.903 0 0 0-1.421-2.07 2.907 2.907 0 0 0-2.504-.183l-9.31 4.353a4.355 4.355 0 0 0-2.703.09 2.778 2.778 0 0 0-1.776 3.285l3.781 15.055-11.09 36.904h23.905l5.272-35.417Z"
    />
    <path
      fill="#7E57C2"
      d="m116.783 124.56-7.39 14.483-3.695-1.028-18.565 15.109a3.759 3.759 0 0 1-5.222-.451l-7.075-8.214s14.262-6.142 16.898-11.225c2.636-5.082-.41-6.24-.41-6.24l6.71-7.624 18.749 5.19ZM107.198 94.983s-10.814-2.393-26.04-17.028c-15.226-14.636-22.372-34.088-24.215-33.98-1.843.108-9.999-3.681-25.472 29.974-15.474 33.655-9.377 41.455-6.309 41.41 3.069-.045 23.981-5.889 37.04-4.407 13.058 1.483 29.843 8.291 29.843 8.291l15.153-24.26Z"
    />
    <path
      fill="#7E57C2"
      d="m130.174 113.327-3.69 7.016-1.654 3.154a9.157 9.157 0 0 1-11.936 4.055l-23.184-8.079 13.518-30.82 23.161 12.341a9.154 9.154 0 0 1 3.785 12.333Z"
    />
    <path
      fill="#000"
      d="m130.174 113.327-3.69 7.016-1.654 3.154a9.157 9.157 0 0 1-11.936 4.055l-23.184-8.079 13.518-30.82 23.161 12.341a9.154 9.154 0 0 1 3.785 12.333Z"
      opacity="0.4"
    />
    <path
      fill="#7E57C2"
      d="M32.705 74.562c-8.232 18.231-11.661 34.48-7.66 36.287 4.001 1.807 13.928-11.504 22.16-29.74 8.233-18.236 11.662-34.475 7.66-36.287-4-1.811-13.927 11.509-22.16 29.74Z"
    />
    <path
      fill="#000"
      d="M32.705 74.562c-8.232 18.231-11.661 34.48-7.66 36.287 4.001 1.807 13.928-11.504 22.16-29.74 8.233-18.236 11.662-34.475 7.66-36.287-4-1.811-13.927 11.509-22.16 29.74Z"
      opacity="0.5"
    />
    <path
      fill="#7E57C2"
      d="m132.166 123.465-6.286-1.973 3.889-7.39 4.713 2.929-2.316 6.434Z"
    />
    <path
      fill="#000"
      d="m129.769 114.102-3.889 7.39 1.294.405 3.158-7.448-.563-.347Z"
      opacity="0.6"
    />
    <path
      fill="#7E57C2"
      d="M125.434 115.805c-.09.203-3.226-1.014-7.002-2.703-3.776-1.69-6.759-3.258-6.673-3.461.085-.203 3.226 1.018 7.006 2.726 3.781 1.708 6.764 3.235 6.669 3.438ZM127.372 111.403c-.099.198-2.938-.996-6.34-2.672-3.402-1.676-6.079-3.195-5.98-3.398.1-.202 2.934.996 6.336 2.672 3.402 1.677 6.083 3.195 5.984 3.398ZM123.001 120.424c-.032.108-.78-.063-1.969-.451a79.394 79.394 0 0 1-2.082-.685c-.78-.265-1.577-.689-2.438-1.081-3.438-1.595-6.065-3.154-5.979-3.344.085-.189 2.911 1.032 6.308 2.614.856.387 1.649.811 2.397 1.122.748.311 1.42.586 1.983.838 1.127.518 1.811.879 1.78.987ZM49.49 70.511s-9.4-5.83-14.54 6.872c-5.142 12.702 4.744 14.788 4.744 14.788a84.545 84.545 0 0 0 9.796-21.66Z"
    />
    <path
      fill="#000"
      d="M59.49 55.37c.058 0-.078.875-.366 2.43a211.048 211.048 0 0 1-1.325 6.57l-1.306 4.447c-.238.796-.483 1.62-.735 2.473l-.383 1.294c-.14.45-.324.86-.486 1.297l-2.123 5.48c-.185.477-.374.955-.559 1.437-.184.482-.45.942-.662 1.42L50.148 85.1l-1.401 2.88c-.239.45-.45.955-.708 1.397-.257.441-.527.9-.784 1.329l-2.996 5.06c-.243.397-.45.807-.721 1.185l-.78 1.104-1.496 2.109-2.703 3.771c-1.803 2.177-3.308 3.894-4.344 5.088a14.807 14.807 0 0 1-1.68 1.802c.423-.703.905-1.37 1.441-1.992 1-1.275 2.41-3.059 4.141-5.254l2.591-3.798 1.451-2.113c.252-.36.505-.73.761-1.104.257-.374.451-.784.699-1.186l2.96-5.055.77-1.325c.267-.45.452-.901.7-1.388l1.387-2.861c.45-.969.933-1.92 1.392-2.861.217-.451.478-.929.658-1.406l.564-1.424 2.154-5.407c.166-.451.355-.852.5-1.285.144-.432.266-.856.396-1.28l.766-2.446 1.384-4.394 1.563-6.488c.157-.814.383-1.613.676-2.388Z"
      opacity="0.5"
    />
    <path
      fill="#000"
      d="M77.08 143.45c.86 1.559 1.735 3.154 3.001 4.384 1.266 1.23 2.997 2.104 4.799 1.924 1.802-.18 3.447-1.649 3.465-3.425.847.636 2.15.293 2.852-.504.703-.798.933-1.902 1.014-2.961 1.154.681 2.758.144 3.528-.95a4.574 4.574 0 0 0 .451-3.858 13.587 13.587 0 0 0-1.852-3.546c.901.072 1.83.135 2.623-.266.793-.401 1.351-1.455.87-2.212a2.176 2.176 0 0 0-1.294-.825c-1.392-.45-2.366-.784-3.817-.617-.333 0 .582 3.821-8.507 9.039-5.394 3.087-7.133 3.817-7.133 3.817Z"
      opacity="0.4"
    />
    <path
      fill="#EB996E"
      d="M97.547 148.947c0 .04-.609-.077-1.591-.05a9.011 9.011 0 0 0-6.678 3.204c-.635.748-.901 1.293-.96 1.271.038-.141.097-.275.176-.397.193-.343.412-.671.653-.982a8.555 8.555 0 0 1 6.809-3.262 6.77 6.77 0 0 1 1.172.108c.145.011.286.047.419.108Z"
    />
    <path
      fill="#FFBE9D"
      d="M77.67 141.012c1.465 1.406 2.465 2.96 4.002 4.375.698.645 1.802 1.861 2.703 2.023.901.163 1.532.041 1.902-.833.302-.708-.239-1.676-.608-2.253-.978-1.537-1.915-2.735-2.645-3.93-.347-.558.099-.675.26-.414.704.73 1.758 1.352 2.39 2.158.864 1.086 1.017 2.533 3.28 2.073.302-.049.589-.168.838-.347.851-.653.9-1.802.531-2.703a7.347 7.347 0 0 0-1.261-1.902c.964 1.086 2.014 2.253 3.546 2.352a2.104 2.104 0 0 0 2.14-1.158c.45-1.027-.194-2.023-.847-2.825a29.56 29.56 0 0 0-3.844-3.929 2.938 2.938 0 0 0-1.865-.69c-.793 0-1.802.144-2.253.829a3.095 3.095 0 0 0-.617 2.357s-1.983-1.005-3.578.045a5.074 5.074 0 0 0-1.992 2.866l-2.082 1.906Z"
    />
    <path
      fill="#FFBE9D"
      d="M88.237 132.577a2.383 2.383 0 0 1-.28-2.704c.339-.662.762-1.307 1.195-1.451 1.888-.635 10.143.793 10.066 2.623-.077 1.829-.68 2.703-5.155 2.059-.788-.113-2.023-.266-2.023-.266l-1.081 1.622-2.722-1.883Z"
    />
    <path
      fill="#EB996E"
      d="M89.715 140.246a10.76 10.76 0 0 0-4.547-4.123c.308.049.604.153.875.306a7.844 7.844 0 0 1 3.28 2.974c.182.254.315.54.392.843ZM91.103 134.618c-.04.036-.586-.406-1.33-.861a9.61 9.61 0 0 0-.964-.536c-.256-.117-.428-.149-.423-.185.004-.036.194-.054.478.032.365.117.713.282 1.036.491.761.464 1.261 1.009 1.203 1.059ZM92.49 132.915a3.54 3.54 0 0 1-1.59-.181 2.953 2.953 0 0 1-1.018-.549c-.226-.194-.32-.352-.298-.374.434.28.898.51 1.384.684.516.106 1.025.246 1.523.42ZM84.47 142.512a5.848 5.848 0 0 1-.752-.977 8.738 8.738 0 0 0-1.924-2.19 3.865 3.865 0 0 0-2.73-.721 4.594 4.594 0 0 0-1.15.365s.081-.095.266-.208a2.53 2.53 0 0 1 .856-.324 3.836 3.836 0 0 1 2.893.698 7.8 7.8 0 0 1 1.928 2.285c.234.34.44.698.613 1.072ZM90.783 160.762a25.361 25.361 0 0 1-3.37.482 24.515 24.515 0 0 1-3.402.252 25.43 25.43 0 0 1 3.375-.482 25.085 25.085 0 0 1 3.397-.252Z"
    />
    <path
      fill="#7E57C2"
      d="m161.766 10.901.509.933.928.509-.928.51-.509.927-.509-.928-.928-.51.928-.508.509-.933ZM172.405 33.958l.509.933.928.51-.928.508-.509.929-.509-.929-.933-.509.933-.509.509-.933ZM1.925 95.474l.509.933.933.509-.933.505-.51.932-.508-.932-.929-.505.929-.51.509-.932ZM147.811 16.633l1.176 2.149 2.15 1.176-2.15 1.172-1.176 2.149-1.171-2.15-2.15-1.17 2.15-1.177 1.171-2.15ZM11.46 80.861l1.171 2.14 2.145 1.172-2.145 1.176-1.171 2.14-1.172-2.14-2.145-1.176 2.145-1.171 1.171-2.14ZM175.298 131.986l1.171 2.145 2.141 1.172-2.141 1.171-1.171 2.145-1.172-2.145-2.145-1.171 2.145-1.172 1.172-2.145Z"
    />
  </svg>