
  <svg
    xmlns="http://www.w3.org/2000/svg"
    width="152"
    height="123"
    fill="none"
  >
    <defs>
      <linearGradient id="a" x1="0" x2="1" y1="1" y2="0">
        <Stop offset="0%" stopColor="rgba(255, 255, 255, 1)" />
        <Stop offset="100%" stopColor="rgba(130.986, 130.986, 130.986, 0.07)" />
      </linearGradient>
    </defs>
    <path
      fill="url(#a)"
      d="M28.2-33.1C36.2-26.9 42-17.7 43.3-8c1.4 9.7-1.8 19.9-7.8 26.7-6.1 6.7-15 10-23.9 13.4-9 3.3-18 6.8-26.2 5.1-8.3-1.7-15.7-8.6-19.8-16.8-4.1-8.2-4.7-17.8-3.5-27.5 1.2-9.7 4.3-19.4 11-25.8 6.6-6.5 16.8-9.5 26.9-9.5 10.1 0 20.2 3.1 28.2 9.3Z"
      transform="translate(50 50)"
    />
    <path
      fill="#263238"
      d="m151.07 70.16.2-1.43h-.23a5.38 5.38 0 0 1-4.54-6.09c.013-.132.037-.262.07-.39l-.77-.11-13.51-1.89-90-12.59-14.29-2c.015.13.015.26 0 .39a5.37 5.37 0 0 1-6.07 4.58h-.23l-.2 1.43a.89.89 0 0 1 .73 1 .87.87 0 0 1-1 .75l-.16 1.17a.9.9 0 0 1 .74 1 .88.88 0 0 1-1 .75l-.17 1.17a.884.884 0 0 1-.24 1.75l-.17 1.17a.883.883 0 1 1-.24 1.75l-.16 1.17a.885.885 0 1 1-.25 1.75l-.16 1.17a.884.884 0 1 1-.25 1.75l-.16 1.17a.884.884 0 1 1-.25 1.75l-.16 1.17a.884.884 0 0 1-.24 1.75l-.17 1.16a.89.89 0 0 1-.24 1.76l-.17 1.16a.89.89 0 0 1-.24 1.76l-.16 1.16a.89.89 0 0 1-.25 1.76l-.16 1.16a.89.89 0 0 1-.25 1.76l-.16 1.16a.89.89 0 0 1 .73 1 .87.87 0 0 1-1 .75l-.16 1.17a.9.9 0 0 1 .74 1 .88.88 0 0 1-1 .75l-.17 1.17a.73.73 0 0 1 .29.11.88.88 0 0 1 .094 1.47.89.89 0 0 1-.654.17l-.17 1.17a.883.883 0 1 1-.24 1.75l-.22 1.55h.23a5.371 5.371 0 0 1 4.58 6.07 1.778 1.778 0 0 1-.07.39l14.28 2 90 12.59 14.29 2c-.01-.13-.01-.26 0-.39a5.371 5.371 0 0 1 2.091-3.55 5.38 5.38 0 0 1 3.989-1.03h.22l.22-1.55a.88.88 0 0 1-.584-.341.886.886 0 0 1 .17-1.238.886.886 0 0 1 .654-.171l.17-1.17a.886.886 0 0 1-.414-1.579.886.886 0 0 1 .654-.171l.17-1.17a.88.88 0 0 1-.74-1 .89.89 0 0 1 1-.76l.16-1.17a.883.883 0 0 1-.73-1 .89.89 0 0 1 1-.76l.16-1.17a.88.88 0 0 1-.75-1 .88.88 0 0 1 1-.75l.16-1.16a.891.891 0 0 1 .25-1.76l.16-1.16a.89.89 0 0 1 .24-1.76l.17-1.16a.89.89 0 0 1 .24-1.76l.17-1.16a.89.89 0 0 1 .24-1.76l.16-1.16a.893.893 0 0 1-.73-1 .88.88 0 0 1 1-.75l.16-1.17a.892.892 0 0 1-.389-1.587.869.869 0 0 1 .659-.163l.16-1.17a.893.893 0 0 1-.73-1 .88.88 0 0 1 1-.75l.16-1.17a.883.883 0 1 1 .24-1.75l.17-1.17a.884.884 0 0 1-.414-1.579.882.882 0 0 1 .654-.171l.17-1.17a.88.88 0 0 1-.74-1 .887.887 0 0 1 1-.76l.16-1.17a.881.881 0 0 1-.73-1 .889.889 0 0 1 .93-.7Zm-91.29-19a.73.73 0 0 1 .64.82.75.75 0 0 1-1.48-.2.78.78 0 0 1 .84-.61v-.01Zm-1.28 3.7a.752.752 0 0 1 1.49.21v.1a.752.752 0 1 1-1.49-.21v-.1Zm-.43 3.13a.75.75 0 0 1 1.117-.544.75.75 0 0 1 .363.754v.1a.752.752 0 0 1-1.49-.21l.01-.1Zm-.44 3.14a.742.742 0 0 1 1.117-.544.75.75 0 0 1 .363.754v.1a.752.752 0 1 1-1.49-.21l.01-.1Zm-.44 3.13a.76.76 0 0 1 .85-.64.75.75 0 0 1 .63.85v.1a.752.752 0 0 1-1.49-.21l.01-.1Zm-.44 3.14a.752.752 0 0 1 1.49.2v.11a.75.75 0 0 1-.85.63.73.73 0 0 1-.63-.84l-.01-.1Zm-.44 3.13a.752.752 0 0 1 1.49.21v.1a.741.741 0 0 1-1.118.544.75.75 0 0 1-.362-.754l-.01-.1Zm-.44 3.14a.75.75 0 0 1 .85-.64.741.741 0 0 1 .64.84v.1a.75.75 0 0 1-1.48-.2l-.01-.1Zm-.44 3.13a.752.752 0 0 1 1.49.21v.1a.752.752 0 1 1-1.49-.21v-.1ZM55 79.93a.75.75 0 0 1 1.48.21v.1a.75.75 0 0 1-.85.64.742.742 0 0 1-.64-.84l.01-.11Zm-.44 3.14a.742.742 0 0 1 1.117-.544.75.75 0 0 1 .363.754v.1a.752.752 0 1 1-1.49-.21l.01-.1Zm-.44 3.13a.76.76 0 0 1 .85-.64.75.75 0 0 1 .63.85v.1a.75.75 0 1 1-1.48-.21v-.1Zm-1.62 22.21a.753.753 0 0 1-1.49-.21.77.77 0 0 1 .85-.66.74.74 0 0 1 .65.82l-.01.05Zm.43-3.08a.753.753 0 0 1-1.49-.21v-.1a.738.738 0 0 1 .84-.64.743.743 0 0 1 .497.292.75.75 0 0 1 .143.558l.01.1Zm.44-3.14a.745.745 0 0 1-.292.497.765.765 0 0 1-.558.143.75.75 0 0 1-.64-.84v-.1a.75.75 0 0 1 1.48.2l.01.1Zm.44-3.13a.752.752 0 1 1-1.49-.21v-.1a.75.75 0 0 1 1.117-.544.75.75 0 0 1 .363.754l.01.1Zm.44-3.13a.75.75 0 0 1-.85.63.741.741 0 0 1-.64-.84v-.1a.752.752 0 0 1 1.127-.547.74.74 0 0 1 .363.747v.11Zm.43-3.14a.741.741 0 0 1-1.118.544.75.75 0 0 1-.362-.754v-.1a.752.752 0 0 1 1.49.21l-.01.1Zm.44-3.13a.75.75 0 1 1-1.48-.21v-.11a.69.69 0 0 1 .22-.43.75.75 0 0 1 .63-.21.76.76 0 0 1 .64.85l-.01.11Z"
    />
    <path
      stroke="#7E57C2"
      strokeMiterlimit="10"
      d="m55.64 53.57-25-3.49A9.53 9.53 0 0 1 26 54.03a4.65 4.65 0 0 1-.34 1c.075.494.075.996 0 1.49a5.15 5.15 0 0 1-.42 1.43c.075.494.075.996 0 1.49a4.83 4.83 0 0 1-.42 1.43c.08.494.08.997 0 1.49a4.827 4.827 0 0 1-.42 1.43c.075.494.075.996 0 1.49a5.2 5.2 0 0 1-.43 1.42 5.002 5.002 0 0 1 0 1.5c-.07.493-.215.971-.43 1.42.075.494.075.996 0 1.49a4.848 4.848 0 0 1-.43 1.43c.075.494.075.996 0 1.49a5.15 5.15 0 0 1-.42 1.43c.07.494.07.996 0 1.49a4.833 4.833 0 0 1-.42 1.43c.08.494.08.997 0 1.49a4.83 4.83 0 0 1-.42 1.43c.075.494.075.996 0 1.49a5.159 5.159 0 0 1-.43 1.43c.075.494.075.996 0 1.49a4.849 4.849 0 0 1-.43 1.43c.075.494.075.996 0 1.49a4.851 4.851 0 0 1-.43 1.43c.075.494.075.996 0 1.49a5.15 5.15 0 0 1-.42 1.43c.075.494.075.996 0 1.49a4.827 4.827 0 0 1-.42 1.43c.046.382.046.768 0 1.15a9.39 9.39 0 0 1 3.36 5.06l25 3.49 7.56-52.03ZM144.5 82.04a5.14 5.14 0 0 1 .42-1.43 4.962 4.962 0 0 1 0-1.49 4.83 4.83 0 0 1 .42-1.43 4.655 4.655 0 0 1 0-1.49 4.83 4.83 0 0 1 .42-1.43 5.149 5.149 0 0 1 .43-2.92 4.408 4.408 0 0 1-.06-1 9.376 9.376 0 0 1-3.37-5.07l-79.35-11.1-7.28 52 79.35 11.1a9.395 9.395 0 0 1 4.63-3.95 4 4 0 0 0 .34-2.58c.073-.495.218-.977.43-1.43a4.962 4.962 0 0 1 0-1.49c.069-.496.214-.978.43-1.43a4.962 4.962 0 0 1 0-1.49c.069-.496.214-.978.43-1.43a4.962 4.962 0 0 1 0-1.49c.07-.495.211-.976.42-1.43a5.313 5.313 0 0 1 0-1.49 5.14 5.14 0 0 1 .42-1.43 4.962 4.962 0 0 1 0-1.49 4.83 4.83 0 0 1 .42-1.43 4.655 4.655 0 0 1 0-1.49 4.83 4.83 0 0 1 .42-1.43 4.962 4.962 0 0 1 0-1.49c.068-.493.214-.972.43-1.42a4.963 4.963 0 0 1 0-1.5c.07-.493.215-.971.43-1.42a4.962 4.962 0 0 1 0-1.49 4.87 4.87 0 0 1 .43-1.43 4.98 4.98 0 0 1-.21-1.51Z"
    />
    <path
      fill="#fff"
      d="M92.38 77.24c-.26 1.89-1.6 2.83-3.66 2.54l-1.43-.2-.31 2.23-2.1-.3L86 73.46l3.54.5c2.05.29 3.09 1.49 2.84 3.28Zm-2-.21c.11-.8-.32-1.29-1.17-1.41l-1.33-.19-.35 2.47 1.33.19a1.191 1.191 0 0 0 1.51-1.06h.01ZM98.77 79.34l-.56 4-2-.28.1-.7a2.28 2.28 0 0 1-2 .53 1.93 1.93 0 0 1-1.85-2.24c.17-1.18 1.1-1.74 2.64-1.55l1.62.23v.01c.08-.59-.27-1-1.05-1.1a4.61 4.61 0 0 0-1.93.24l-.37-1.46a6.81 6.81 0 0 1 3-.27c1.71.2 2.59 1.16 2.4 2.59ZM96.5 81l.08-.54-1.22-.17c-.57-.08-.89.08-1 .52-.11.44.21.74.74.82a1.24 1.24 0 0 0 1.4-.63ZM104.5 77.84l-.26 1.88c-1.12-.28-1.95.12-2.17 1l-.45 3.17-2-.29.88-6.26 2 .29-.14 1a2.263 2.263 0 0 1 2.14-.79ZM108.61 84.51a3.5 3.5 0 0 1-1.73.18 1.915 1.915 0 0 1-1.426-.725 1.917 1.917 0 0 1-.374-1.555l.37-2.66-.86-.13.19-1.35.86.12.24-1.72 2 .28-.25 1.72 1.61.23-.19 1.35-1.6-.22-.33 2.34c-.07.46.11.7.47.74.27.01.54-.025.8-.1l.22 1.5ZM110.14 87.42a2.899 2.899 0 0 1-1.75-.91l1.05-1.29c.191.248.471.412.78.46a.789.789 0 0 0 .81-.37l.19-.26-1.72-6.43 2.1.3.91 4.25 1.89-3.83 2 .28-3.62 6.45a2.456 2.456 0 0 1-2.64 1.35Z"
    />
    <path
      fill="#fff"
      d="m111.92 105.57-26.72-3.74a4.08 4.08 0 0 1-2.69-1.58 4.075 4.075 0 0 1-.258-4.522 4.069 4.069 0 0 1 4.078-1.968l26.72 3.74a4.073 4.073 0 0 1 3.47 4.6 4.083 4.083 0 0 1-4.6 3.47Z"
      opacity="0.7"
    />
    <path
      stroke="#7E57C2"
      strokeLinecap="round"
      strokeLinejoin="round"
      d="m89.58 90.41 21.42 3M87.26 106.99l21.42 3M115.28 110.91l4.11.58M81.19 106.14l-6.73-.94M29.08 68.88 27 83.7M26.36 88.27l-.39 2.83M29.66 64.68l.65-4.65"
    />
    <path
      fill="#fff"
      d="m47.932 62.627-15.86-2.243-.444 3.139 15.86 2.242.444-3.138ZM43.945 90.804l-15.86-2.243-.444 3.138 15.86 2.243.444-3.138ZM47.704 67.33l-15.866-2.22-.108.773 15.866 2.219.108-.773ZM46.879 70.05l-15.86-2.242-.11.772 15.86 2.243.11-.772ZM45.806 80.875 29.94 78.657l-.108.772 15.866 2.219.108-.773ZM46.642 71.779l-15.86-2.243-.266 1.881 15.86 2.243.266-1.881ZM45.167 85.471 29.3 83.253l-.263 1.882 15.866 2.218.263-1.882ZM45.002 83.386l-15.86-2.243-.265 1.881 15.86 2.243.265-1.881ZM46.706 74.455 30.84 72.236l-.065.466 15.866 2.218.065-.465ZM47.399 66.441l-15.86-2.243-.066.466 15.86 2.243.066-.466ZM46.046 79.198 30.18 76.979l-.065.466 15.866 2.218.065-.465ZM46.514 75.855l-15.866-2.219-.065.466L46.45 76.32l.065-.465ZM44.201 89.003l-15.86-2.243-.066.466 15.86 2.242.066-.465Z"
    />
    <path
      fill="#000"
      d="m145.76 62.14-7.73 17.74-83.21 8.94-.92.1L15.99 93a.731.731 0 0 0-.29-.11l.17-1.17a.879.879 0 0 0 .83-1.398.9.9 0 0 0-.57-.352l.16-1.17a.868.868 0 0 0 1-.75.89.89 0 0 0-.73-1l.16-1.16a.89.89 0 0 0 .25-1.76l.16-1.16a.89.89 0 0 0 .25-1.76l.16-1.16a.89.89 0 0 0 .24-1.76l.17-1.16a.89.89 0 0 0 .24-1.76l.17-1.16a.88.88 0 0 0 .995-.755.883.883 0 0 0-.755-.995l.16-1.17a.883.883 0 1 0 .25-1.75l.16-1.17a.883.883 0 1 0 .25-1.75l.16-1.17a.883.883 0 1 0 .25-1.75l.16-1.17a.883.883 0 1 0 .24-1.75l.17-1.17a.883.883 0 0 0 .24-1.75l.17-1.17a.879.879 0 0 0 .83-1.398.9.9 0 0 0-.57-.352l.16-1.17a.868.868 0 0 0 1-.75.89.89 0 0 0-.73-1l.2-1.43h.23A5.368 5.368 0 0 0 28 46.01c.015-.13.015-.26 0-.39l14.29 2 90 12.59 13.47 1.93Z"
      opacity="0.3"
    />
    <path
      fill="#263238"
      d="m126.04 5.34-.41-1.38-.22.07a5.38 5.38 0 0 1-6.68-3.65c0-.12-.07-.25-.09-.38L104.8 4.06l-87.22 25.6-13.83 4.06c.05.12.09.244.12.37a5.36 5.36 0 0 1-3.64 6.67l-.23.06.41 1.38a.89.89 0 0 1 .5 1.7l.33 1.13a.89.89 0 0 1 .5 1.7l.33 1.13a.89.89 0 0 1 .5 1.7l.33 1.13a.89.89 0 0 1 1.08.6.9.9 0 0 1-.58 1.1l.33 1.13a.88.88 0 0 1 1.01 1.266.9.9 0 0 1-.51.434l.33 1.12a.89.89 0 0 1 .5 1.7l.33 1.13a.89.89 0 0 1 .5 1.7L6.22 62a.89.89 0 0 1 .5 1.7l.33 1.13a.89.89 0 0 1 .5 1.7l.33 1.13a.89.89 0 0 1 1.08.6.9.9 0 0 1-.58 1.1l.33 1.13a.89.89 0 0 1 1.08.6.9.9 0 0 1-.58 1.1l.29 1.15a.88.88 0 1 1 .5 1.69l.33 1.13a.89.89 0 0 1 .5 1.7l.33 1.13a.89.89 0 0 1 .5 1.7l.33 1.13a.89.89 0 0 1 .5 1.7l.33 1.13a.89.89 0 0 1 1.08.6.9.9 0 0 1-.58 1.1l.44 1.5.21-.08a5.39 5.39 0 0 1 6.68 3.65c.04.124.07.251.09.38l13.84-4.06 87.22-25.59 13.84-4.06a2.692 2.692 0 0 1-.13-.37 5.39 5.39 0 0 1 3.65-6.68l.22-.06-.44-1.49a.89.89 0 0 1-.5-1.7l-.33-1.13a.89.89 0 0 1-.5-1.7l-.33-1.13a.89.89 0 0 1-.5-1.7l-.33-1.13a.89.89 0 0 1-.5-1.7l-.33-1.13a.89.89 0 0 1-1.08-.6.902.902 0 0 1 .58-1.1l-.33-1.13a.882.882 0 0 1-.5-1.69l-.33-1.13a.89.89 0 0 1-.5-1.7l-.33-1.13a.89.89 0 0 1-.5-1.7l-.33-1.13a.886.886 0 0 1-.49-1.7l-.31-1.12a.884.884 0 1 1-.49-1.7l-.34-1.13a.886.886 0 0 1-.49-1.7l-.34-1.13a.88.88 0 0 1-1.007-1.269.902.902 0 0 1 .517-.431l-.34-1.12a.9.9 0 0 1-1.08-.61.889.889 0 0 1 .59-1.09l-.34-1.13a.886.886 0 0 1-.49-1.7l-.34-1.13a.885.885 0 1 1-.49-1.7l-.34-1.13a.886.886 0 0 1-.49-1.7l.01-.03ZM51.99 80.78a.76.76 0 0 1-.51.93.75.75 0 0 1-.93-.51.77.77 0 0 1 .787-1.03.73.73 0 0 1 .633.52l.02.09Zm-.88-3a.75.75 0 1 1-1.44.42v-.1a.76.76 0 0 1 .51-.93.75.75 0 0 1 .93.51v.1Zm-.89-3a.75.75 0 0 1-1.44.42v-.09a.75.75 0 1 1 1.44-.42v.09Zm-.89-3a.75.75 0 1 1-1.44.42v-.1a.75.75 0 1 1 1.44-.42v.1Zm-.89-3a.75.75 0 0 1-.51.93.74.74 0 0 1-.93-.51v-.1a.75.75 0 0 1 1.44-.42v.1Zm-.89-3a.75.75 0 0 1-.51.93.74.74 0 0 1-.93-.51v-.09a.74.74 0 0 1 .51-.93.75.75 0 0 1 .93.5v.1Zm-.89-3a.77.77 0 0 1-.51.93.76.76 0 0 1-.93-.51v-.1a.75.75 0 0 1 1.44-.42v.1Zm-.9-3a.751.751 0 1 1-1.43.42v-.1a.75.75 0 0 1 .51-.93.76.76 0 0 1 .93.51l-.01.1Zm-.89-3a.74.74 0 0 1-.51.93.748.748 0 0 1-.93-.51v-.09a.752.752 0 0 1 .479-1.001.75.75 0 0 1 .951.571l.01.1Zm-.89-3a.76.76 0 0 1-.51.94.77.77 0 0 1-.93-.51v-.1a.76.76 0 0 1 .802-.959.738.738 0 0 1 .638.539v.09Zm-.89-3a.75.75 0 0 1-.51.93.76.76 0 0 1-.93-.51v-.1a.748.748 0 0 1 .51-.93.74.74 0 0 1 .93.51v.1Zm-.89-3a.75.75 0 1 1-1.44.42v-.1a.75.75 0 1 1 1.44-.42v.1Zm-.89-3a.752.752 0 1 1-1.44.43v-.1a.75.75 0 0 1 1.44-.42v.09Zm-.89-3a.75.75 0 1 1-1.44.42v-.1a.75.75 0 1 1 1.44-.42v.1Zm-.89-3a.75.75 0 0 1-.51.93.74.74 0 0 1-.93-.51v-.1a.75.75 0 0 1 .51-.93.76.76 0 0 1 .93.51v.1Zm-.89-3a.76.76 0 0 1-.8.96.742.742 0 0 1-.64-.53v-.1a.74.74 0 0 1 .51-.93.75.75 0 0 1 .93.51v.09Zm-.9-3a.751.751 0 1 1-1.43.42v-.1a.75.75 0 1 1 1.44-.42l-.01.1Zm-.89-3a.75.75 0 0 1-.5.93.76.76 0 0 1-.94-.51v-.1a.751.751 0 0 1 1.087-.928.75.75 0 0 1 .343.508l.01.1Zm-.89-3a.74.74 0 0 1-.51.93.748.748 0 0 1-.93-.51.781.781 0 0 1 .5-1 .74.74 0 0 1 .93.48l.01.1Z"
    />
    <path
      stroke="#7E57C2"
      strokeMiterlimit="10"
      d="m32.24 29.55-24.2 7.11a9.53 9.53 0 0 1-2.6 5.51c.058.33.089.665.09 1A5 5 0 0 1 6.36 46a5 5 0 0 1 .83 2.83c.277.416.49.87.63 1.35a5 5 0 0 1 .2 1.47 5 5 0 0 1 .83 2.83c.273.418.486.872.63 1.35.14.48.207.98.2 1.48.273.418.486.872.63 1.35.14.48.207.98.2 1.48a5 5 0 0 1 .83 2.83 5 5 0 0 1 .83 2.83c.277.416.49.87.63 1.35a5 5 0 0 1 .2 1.47 5 5 0 0 1 .83 2.83c.273.418.486.872.63 1.35.14.48.207.98.2 1.48.273.418.486.872.63 1.35.14.48.207.98.2 1.48a5 5 0 0 1 .83 2.83 5 5 0 0 1 .83 2.83c.211.312.386.648.52 1A9.5 9.5 0 0 1 22.82 87l24.2-7.1-14.78-50.35ZM124.94 18.9a4.978 4.978 0 0 1-.21-1.47 4.901 4.901 0 0 1-.62-1.35 5.113 5.113 0 0 1-.21-1.48 4.903 4.903 0 0 1-.62-1.35 5.113 5.113 0 0 1-.21-1.48 4.766 4.766 0 0 1-.62-1.35 4.977 4.977 0 0 1-.21-1.48 5.192 5.192 0 0 1-.47-.91 9.391 9.391 0 0 1-5.16-3.23L39.73 27.34l14.77 50.4 76.88-22.56a9.426 9.426 0 0 1 2.59-5.5 4.91 4.91 0 0 1-.12-1.14 5.22 5.22 0 0 1-.63-1.35 5.443 5.443 0 0 1-.2-1.48 5.068 5.068 0 0 1-.63-1.35 5.403 5.403 0 0 1-.2-1.48 5.068 5.068 0 0 1-.63-1.35 5.365 5.365 0 0 1-.2-1.48 4.92 4.92 0 0 1-.63-1.35 5.37 5.37 0 0 1-.2-1.47 4.83 4.83 0 0 1-.62-1.36 4.978 4.978 0 0 1-.21-1.47 4.901 4.901 0 0 1-.62-1.35 5.113 5.113 0 0 1-.21-1.48 4.901 4.901 0 0 1-.62-1.35 5.113 5.113 0 0 1-.21-1.48 4.766 4.766 0 0 1-.62-1.35 4.978 4.978 0 0 1-.21-1.48 4.765 4.765 0 0 1-.62-1.35 4.978 4.978 0 0 1-.21-1.48 4.637 4.637 0 0 1-.62-1.35 4.978 4.978 0 0 1-.21-1.47 4.79 4.79 0 0 1-.61-1.36Z"
    />
    <path
      fill="#fff"
      d="M75.5 35.99c.53 1.83-.3 3.24-2.29 3.82l-1.39.41.63 2.16-2 .6-2.29-7.8 3.42-1c1.92-.59 3.37.07 3.92 1.81Zm-1.92.63a1.179 1.179 0 0 0-1.65-.8l-1.29.38.7 2.4 1.29-.38a1.19 1.19 0 0 0 .87-1.6h.08ZM82.15 35.27l1.14 3.92-1.94.57-.2-.68a2.28 2.28 0 0 1-1.59 1.3 1.931 1.931 0 0 1-2.61-1.28c-.34-1.14.28-2 1.77-2.5l1.57-.46v-.07c-.17-.56-.66-.78-1.41-.56a4.74 4.74 0 0 0-1.67 1l-.93-1.18a6.89 6.89 0 0 1 2.61-1.48c1.61-.51 2.84.04 3.26 1.42Zm-1.4 2.45-.15-.52-1.18.34c-.56.17-.78.45-.65.87s.49.59 1 .44a1.23 1.23 0 0 0 .98-1.13ZM86.76 31.55l.53 1.81c-1.13.21-1.72.92-1.58 1.78l.9 3.07-2 .58-1.77-6 2-.58.3 1a2.23 2.23 0 0 1 1.62-1.66ZM93.24 35.93a3.581 3.581 0 0 1-1.51.88 1.901 1.901 0 0 1-2.57-1.34l-.76-2.58-.84.24-.38-1.31.83-.24-.49-1.67 2-.58.49 1.67 1.56-.46.39 1.32-1.56.45.66 2.27c.14.45.39.59.74.48.25-.099.48-.241.68-.42l.76 1.29ZM95.83 37.95a2.88 2.88 0 0 1-2-.1l.42-1.61c.277.144.598.18.9.1a.821.821 0 0 0 .59-.67l.06-.32-4.22-5.15 2-.59 2.58 3.49.13-4.29 2-.58-.64 7.37a2.45 2.45 0 0 1-1.82 2.35Z"
    />
    <path
      fill="#263238"
      d="M120.09 30.07a1.86 1.86 0 1 1-3.22 1.863 1.86 1.86 0 0 1 3.22-1.863ZM116.72 33.47l.02 2.38 2.04-1.18-2.06-1.2ZM57.81 48.9a1.85 1.85 0 1 1-3.68.367 1.85 1.85 0 0 1 3.68-.367ZM58.83 50.07l-.97 2.18 2.35-.23-1.38-1.95Z"
    />
    <path
      fill="#fff"
      d="m104.94 53.76-25.89 7.58a4.09 4.09 0 0 1-5.06-2.76 4.08 4.08 0 0 1 2.77-5.06l25.88-7.59a4.067 4.067 0 0 1 4.323 1.35c.336.417.587.896.737 1.41a4.064 4.064 0 0 1-1.347 4.332 4.071 4.071 0 0 1-1.413.738Z"
      opacity="0.7"
    />
    <path
      stroke="#7E57C2"
      strokeLinecap="round"
      strokeLinejoin="round"
      d="m78.34 49.15 20.75-6.09M83.05 65.22l20.75-6.09M110.2 57.25l3.98-1.17M77.17 66.94l-6.52 1.91M14.34 54.44l4.21 14.36M19.85 73.23l.8 2.74M13.14 50.38l-1.32-4.51"
    />
    <path
      fill="#fff"
      d="m29.199 40.465-15.372 4.51.892 3.041 15.372-4.51-.892-3.041ZM37.225 67.782l-15.372 4.51.892 3.042 15.372-4.51-.892-3.042ZM30.445 45.95l-15.38 4.486.219.75L30.663 46.7l-.218-.75ZM31.318 47.67l-15.372 4.51.22.749 15.372-4.51-.22-.748ZM34.506 58.523l-15.372 4.51.22.749 15.371-4.51-.219-.748ZM31.813 49.331l-15.372 4.51.535 1.823 15.372-4.51-.535-1.823ZM35.814 62.983l-15.372 4.51.535 1.823 15.372-4.51-.535-1.823ZM35.11 60.587l-15.373 4.51.535 1.823 15.372-4.51-.535-1.823ZM32.46 52.86l-15.379 4.486.132.45 15.379-4.485-.132-.45ZM30.299 44.173l-15.372 4.51.132.45 15.372-4.51-.132-.45ZM34.019 56.889l-15.372 4.51.132.45 15.372-4.51-.132-.45ZM33.077 53.664l-15.372 4.51.132.45 15.373-4.51-.133-.45ZM36.715 66.041l-15.372 4.51.133.451 15.372-4.51-.133-.45Z"
    />
  </svg>
