<svg width="710" height="868" viewBox="0 0 710 868" fill="none" xmlns="http://www.w3.org/2000/svg">
<path d="M186.889 446.177L197.5 484L149.604 566.634L155.34 593.594V653.823L217.864 688.239H290.712V747.894L299.316 818.448C299.316 818.448 311.647 830.074 320 837C331.063 846.173 349.5 859 349.5 859L382 820L497.784 697.417L541.378 632.599L565.469 566.634L572.352 494.36V400.288L565.469 337.765L531.053 284.42L510.403 275.242L497.784 263.196L519.581 181.171L491.474 129.546L431.245 181.171L333.732 172.567V215.014L305.052 145.033L237.94 42.3579L254.001 172.567L203.523 145.033L186.889 192.643L203.523 263.196L152 295L167.96 320.557L161.077 337.765L116.335 360.136V400.288L186.889 446.177Z" fill="white"/>
<path d="M225.66 11.9151C224.365 14.0066 227.452 46.4752 231.735 75.6571C234.822 97.17 242.89 147.666 243.687 150.952C243.985 152.247 243.886 153.343 243.388 153.343C240.699 153.343 213.21 127.746 205.939 118.484L203.151 114.998L200.661 117.986C195.681 123.962 185.323 140.196 182.534 146.471C174.865 163.302 172.176 176.051 172.176 194.177C172.176 217.483 178.251 237.502 190.9 255.629C193.191 259.015 194.884 262.003 194.486 262.302C192.195 263.596 175.861 268.078 168.69 269.373C145.683 273.357 126.461 269.572 111.82 258.019C108.932 255.728 106.641 254.234 106.641 254.732C106.641 255.23 107.438 258.019 108.534 261.007C116.302 283.516 136.122 306.722 157.436 318.076L163.71 321.462L156.838 324.948C138.512 334.211 123.672 338.493 107.438 339.29L95.6855 339.888V357.018C95.6855 372.257 95.8847 374.348 97.4783 375.743C100.964 378.93 103.554 385.902 105.147 396.857C107.737 414.785 110.426 425.143 114.31 433.011C119.39 443.369 127.059 451.038 137.118 455.819L144.986 459.603L166.2 459.902C182.036 460.201 187.315 460.5 187.016 461.396C186.817 462.093 184.128 471.754 181.04 483.009C171.08 519.461 170.483 520.557 154.149 531.213C141.799 539.281 138.811 542.07 135.126 549.041C128.154 562.288 130.146 577.227 140.205 587.785C142.098 589.777 143.492 591.768 143.193 592.266C142.894 592.764 142.994 603.222 143.392 615.572C144.189 637.085 144.388 638.181 147.277 646.148C157.436 673.538 182.235 693.855 214.604 701.425C230.639 705.11 265.1 704.114 283.625 699.532C285.916 698.935 285.916 698.935 282.928 705.608C275.856 721.344 272.57 736.483 272.669 753.414C272.669 773.732 277.35 789.07 288.406 805.603C292.389 811.579 300.756 820.642 302.25 820.642C302.548 820.642 302.449 818.451 302.15 815.662C301.851 812.973 302.15 807.197 302.847 803.014C307.628 773.433 327.647 748.235 364 726.025C367.784 723.734 382.624 715.866 396.867 708.396C411.209 701.026 427.841 691.764 433.817 687.68C481.225 656.108 514.491 608.202 528.932 550.735C534.41 528.923 538.693 500.538 538.892 484.005L538.991 480.519L541.083 483.507C542.278 485.1 546.561 489.881 550.744 493.964L558.313 501.334V523.843C558.313 547.747 557.019 558.702 552.337 577.626C539.29 629.914 506.423 673.239 457.82 702.321C452.243 705.608 434.514 714.771 418.38 722.738C382.923 740.168 373.86 745.347 361.609 755.705C350.455 765.067 343.184 774.23 337.806 785.783C326.352 810.583 329.041 837.773 344.678 854.804C349.957 860.581 358.621 865.76 365.494 867.353C369.278 868.15 369.677 868.05 368.98 866.656C365.394 858.091 366.49 845.641 371.868 834.685C375.951 826.22 388.899 813.073 400.651 805.404C405.332 802.316 418.977 794.548 431.028 788.174C460.31 772.537 471.664 765.764 481.225 757.996C485.707 754.41 490.587 750.526 491.982 749.43L494.571 747.438L492.181 750.924C484.91 761.382 472.361 774.828 460.708 784.588L451.745 792.058L458.816 791.46C471.863 790.265 487.101 784.19 502.539 774.031C516.682 764.768 538.294 739.969 546.76 723.336C547.955 720.946 549.15 719.053 549.549 719.053C549.848 719.053 549.848 726.025 549.449 734.59C548.752 750.626 546.76 767.856 544.37 778.314C543.573 781.501 543.175 784.389 543.473 784.688C543.772 784.987 547.457 781.6 551.74 777.218C571.659 756.601 586.3 725.926 593.571 689.473C596.559 674.733 599.646 651.427 599.646 643.758C599.646 641.467 599.945 638.28 600.244 636.587L600.841 633.599L609.207 640.272C624.246 652.423 643.967 660.291 659.205 660.291H666.675L661.595 654.913C643.469 635.691 628.728 597.445 617.673 540.775C616.08 532.309 612.394 512.589 609.606 496.952C606.717 481.315 603.132 462.093 601.538 454.225C599.945 446.357 598.75 439.684 598.949 439.584C599.148 439.385 602.634 440.381 606.717 441.875C618.37 445.959 635.103 446.058 644.066 441.975C646.457 440.879 646.457 440.879 641.178 435.302C630.222 423.649 623.948 412.494 611.1 381.918C600.343 356.022 588.79 335.804 574.149 317.08C567.576 308.614 550.943 292.28 547.158 290.488C542.876 288.496 544.868 287.799 554.628 287.799C560.106 287.799 566.879 287.101 570.165 286.305C576.739 284.612 584.906 280.827 585.404 279.233C585.603 278.636 582.715 276.146 579.029 273.656C575.344 271.166 565.285 263.497 556.819 256.525C544.967 246.765 528.135 234.415 521.064 230.331C520.865 230.232 521.761 225.949 523.056 220.869C525.148 212.702 525.446 209.416 525.347 193.679C525.347 177.146 525.048 175.055 522.558 166.788C517.678 150.654 512.3 140.196 500.746 124.46C496.962 119.281 493.575 114.799 493.376 114.599C493.177 114.301 492.281 115.197 491.384 116.591C488.496 120.775 471.066 138.304 462.202 145.773C454.832 152.048 432.124 169.577 428.638 171.569C427.941 171.967 423.758 170.473 419.376 168.282C390.791 153.94 359.817 151.351 330.037 160.812L322.767 163.103L319.38 157.426C317.588 154.339 308.823 139.399 299.859 124.061C272.968 77.8483 256.136 50.9571 240.002 28.3486C228.548 12.2139 226.755 10.1223 225.66 11.9151ZM254.642 76.2546C258.825 83.7244 259.025 88.6047 255.439 96.174C252.65 102.15 251.057 103.046 251.057 98.5644C251.057 95.676 245.977 70.1792 244.085 63.7054C243.587 61.8131 243.089 59.5223 243.089 58.7255C243.089 57.132 249.264 66.3945 254.642 76.2546ZM276.454 111.811C282.43 122.169 277.55 135.415 264.403 144.479L260.12 147.467L259.423 144.678C259.025 143.184 257.829 140.395 256.734 138.602L254.742 135.216L260.618 129.539C266.594 123.762 272.968 113.504 272.968 109.62C272.968 106.632 273.566 107.03 276.454 111.811ZM297.469 149.06C301.353 157.825 299.76 163.9 290.796 175.154C286.613 180.333 273.267 190.194 270.379 190.194C269.482 190.194 268.984 189.098 268.984 187.405C268.984 185.811 267.889 182.325 266.494 179.636C265.1 176.947 264.004 174.656 264.004 174.557C264.004 174.457 267.49 172.366 271.773 169.975C281.434 164.398 290.099 155.335 292.589 148.363C293.585 145.574 294.481 143.383 294.581 143.383C294.78 143.383 296.075 145.972 297.469 149.06ZM234.125 175.154C242.093 181.927 249.065 188.102 249.762 188.998C250.459 189.994 251.654 196.468 252.551 203.54C253.447 210.511 254.841 218.18 255.638 220.471C256.435 222.662 257.232 224.953 257.331 225.451C257.431 225.949 256.136 227.144 254.443 228.24L251.356 230.032L249.065 223.857C243.487 208.519 239.902 203.739 227.253 194.775C223.07 191.787 217.991 187.704 215.999 185.712C213.907 183.62 212.214 182.226 212.214 182.425C212.214 182.624 213.509 189.098 215.102 196.867C219.684 218.479 224.763 232.024 231.137 238.797C233.727 241.586 234.026 241.187 222.373 248.557C215.501 252.94 215.003 253.139 213.21 251.446C208.628 247.263 198.27 223.16 195.681 210.511C194.486 204.635 194.187 199.655 194.585 190.692C195.183 177.047 197.474 167.884 202.852 157.127L206.437 150.056L213.011 156.53C216.696 160.115 226.158 168.481 234.125 175.154ZM493.376 154.737C497.659 161.609 501.941 175.553 503.137 186.409C504.929 203.739 501.145 221.168 491.085 242.582C485.807 253.936 480.628 262.003 471.465 273.058C468.079 277.341 465.19 280.926 465.19 281.026C465.19 281.225 471.365 281.325 478.935 281.325C494.571 281.424 501.244 282.819 512.2 288.297C535.107 299.85 554.23 324.351 562.297 352.337C567.675 371.062 568.97 394.865 566.879 434.704C565.484 460.101 567.476 483.407 572.257 497.45C573.452 501.036 559.309 485.598 554.031 477.531C545.366 464.384 539.29 445.66 536.502 423.848C535.705 417.773 534.808 401.538 534.41 387.894C534.111 374.149 533.314 358.612 532.816 353.234C530.924 334.51 523.952 316.483 515.188 307.818C510.806 303.535 500.846 297.161 494.671 294.87L492.081 293.874L494.472 297.559C500.547 307.32 508.913 326.641 511.403 336.8L512.001 339.589L432.124 339.489C356.53 339.489 352.247 339.39 354.638 337.796C369.876 327.339 387.106 311.801 397.464 299.252C404.038 291.185 412.703 278.237 417.682 268.676C421.168 262.003 422.363 261.206 422.363 265.588C422.363 266.784 422.861 267.879 423.359 267.879C423.957 267.879 424.355 264.094 424.355 258.617C424.355 253.537 425.053 244.175 425.75 237.801C427.244 226.048 432.423 203.838 434.813 199.157C436.108 196.568 443.777 189.795 465.688 171.469C472.262 165.992 480.329 159.02 483.616 156.032C486.902 152.944 489.791 150.454 490.089 150.355C490.388 150.355 491.882 152.347 493.376 154.737ZM384.317 178.839C393.082 180.632 407.026 186.011 412.703 189.795C416.288 192.186 416.587 192.584 415.89 195.97C414.595 203.44 414.993 203.141 406.627 203.141C395.174 203.141 376.848 207.822 361.908 214.694L354.638 217.981L352.845 215.292C350.156 211.507 334.718 185.014 334.718 184.218C334.718 183.122 342.586 180.333 349.757 178.74C358.522 176.848 375.055 176.947 384.317 178.839ZM318.285 185.911C325.057 196.07 316.791 212.902 299.062 224.953C293.186 228.937 281.733 235.012 280.039 235.012C279.541 235.012 278.745 233.518 278.446 231.725C278.048 230.032 276.753 226.746 275.558 224.554C274.462 222.363 273.466 220.272 273.466 219.774C273.466 219.375 276.852 217.583 280.936 215.79C297.27 208.719 311.711 195.273 314.301 184.915C314.699 183.421 315.197 182.226 315.396 182.226C315.596 182.226 316.89 183.919 318.285 185.911ZM407.922 230.729C405.432 241.287 397.066 259.513 388.7 272.361C367.386 305.626 328.543 331.82 283.924 343.075C243.189 353.433 203.649 354.13 172.475 344.967L166.897 343.374L194.287 336.999C259.921 321.861 286.912 308.116 332.228 266.385C351.251 248.956 365.195 238.797 379.537 232.124C387.305 228.439 399.357 225.152 405.133 225.152L409.217 225.052L407.922 230.729ZM265 251.446C265 251.645 266.594 259.314 268.486 268.477C270.379 277.54 271.972 285.309 271.972 285.807C271.972 287.101 255.439 294.671 246.077 297.758C232.532 302.14 222.871 303.933 208.23 304.431C189.506 305.228 171.08 302.439 158.432 296.961L153.95 295.069L163.909 293.874C190.9 290.488 215.999 280.329 249.065 259.513C261.216 251.944 265 249.952 265 251.446ZM185.124 367.277C184.426 368.372 180.841 372.356 177.255 376.241L170.582 383.412H158.531H146.48V392.375V401.339H138.014C132.038 401.339 129.349 400.941 129.051 400.044C128.154 397.455 123.871 366.48 124.369 365.982C124.668 365.683 138.711 365.484 155.643 365.484C185.422 365.484 186.418 365.584 185.124 367.277ZM374.457 367.177C373.76 368.173 370.075 372.257 366.191 376.141L359.219 383.412H346.471H333.822L333.523 392.077L333.224 400.841L324.559 401.14C316.193 401.439 315.795 401.339 315.297 399.148C314.799 396.558 310.815 368.074 310.815 366.48C310.815 365.883 322.169 365.484 343.284 365.484C374.059 365.484 375.752 365.584 374.457 367.177ZM517.977 376.44C519.67 379.527 520.566 493.167 519.072 508.406C516.483 534.899 511.104 553.722 499.85 575.933C486.305 602.525 467.68 620.652 442.084 632.205C429.136 637.981 417.384 640.372 400.95 640.372C389.198 640.471 368.581 637.782 366.788 635.89C366.49 635.591 368.282 635.392 370.673 635.392C377.047 635.392 390.492 631.806 400.751 627.424C427.841 615.771 452.043 592.366 468.178 562.288C487.898 525.636 494.571 474.344 483.914 441.676L481.624 434.704L481.425 441.676C481.026 453.229 478.138 477.929 476.146 488.088C470.768 514.382 458.318 539.38 442.781 555.117C421.866 576.231 396.369 587.287 361.111 590.573C344.678 592.067 345.475 592.266 346.271 587.984L346.969 584.299L343.682 586.191C338.005 589.478 331.232 596.151 328.942 600.832C327.248 604.218 326.252 608.899 325.256 618.56C324.061 630.213 323.464 632.603 320.177 639.177C311.114 657.602 288.605 672.342 262.61 676.824C249.961 679.015 225.759 678.318 214.704 675.33C194.486 670.052 179.845 658.797 171.578 642.364C166.599 632.603 166.599 632.603 165.603 600.234L164.905 578.522L159.726 573.741C149.368 564.18 151.559 558.802 170.383 546.85C188.311 535.496 194.486 523.744 206.238 479.124L210.72 461.894L217.991 460.002C239.304 454.623 252.65 439.186 260.518 410.801C264.004 398.152 266.494 394.069 272.371 391.877C281.633 388.292 290.298 393.77 293.385 405.124C299.859 428.031 303.744 436.098 313.106 445.461C317.986 450.44 321.87 453.229 327.547 455.918L335.216 459.603H375.553H415.89L422.363 456.416C434.614 450.341 443.179 440.68 448.657 426.836C451.346 420.063 455.33 403.132 456.724 392.475C457.72 385.105 459.513 381.221 463.696 377.535L467.282 374.448H492.081C515.985 374.448 516.981 374.548 517.977 376.44Z" fill="#0EA5E9"/>
<path d="M471.863 192.783C459.712 202.942 457.82 204.934 454.832 210.91C446.765 227.044 434.215 270.469 437.203 272.261C438.299 272.958 449.753 263.397 456.027 256.425C470.867 240.191 478.436 223.16 483.118 195.671C484.213 189.098 485.309 183.122 485.607 182.425C485.807 181.827 485.906 181.23 485.807 181.23C485.707 181.23 479.432 186.409 471.863 192.783Z" fill="#0EA5E9"/>
<path d="M268.486 569.16C263.407 570.953 258.526 576.431 257.132 582.108C256.534 584.498 256.036 590.076 256.036 594.458V602.525L263.805 599.637C275.856 595.155 278.645 593.761 282.33 590.574C285.716 587.586 285.816 587.586 286.812 589.478C287.409 590.574 287.907 592.067 287.907 592.964C287.907 593.761 288.306 594.657 288.704 594.956C289.8 595.553 289.003 584 287.808 579.917C286.314 575.236 283.127 571.65 278.545 569.559C273.665 567.367 273.565 567.367 268.486 569.16Z" fill="#0EA5E9"/>
<g style="mix-blend-mode:color">
<path d="M84 340.914L88.7615 338.269L149.603 340.914C149.603 340.914 168.533 351.219 178.701 354.67C191.651 359.065 195.631 358.902 213.619 359.96C231.606 361.018 276.576 357.952 288.744 356.786C300.913 355.62 353.289 338.269 353.289 338.269L512 339.5L515 356.5L517.825 376.89H465.978L461.745 379.535L458.042 393.291L453.81 428.208L438.467 448.313L417.305 463.655H330.011L299.855 444.08L290.332 414.453L288 397.5C288 397.5 289.378 394.145 282.5 391.5C275.622 388.855 269 394.5 269 394.5L263.35 402.814L258.588 438.26L236.368 458.365L213.619 461.01H188.224H154.893C144.841 461.01 137.964 458.365 137.964 458.365C137.964 458.365 123.679 448.842 116.272 438.26C108.866 427.679 105.162 402.814 105.162 402.814L104 393L100.401 379.535L96.1683 376.89L84 340.914Z" fill="#D946EF"/>
</g>
<g style="mix-blend-mode:color">
<path d="M354.866 217.786C319.175 238.668 301.088 254.166 271.397 286.864L244.534 156.384L225.346 50.3691L223.427 0L290.586 101.698L302 128L323 163L335 184.5L354.866 217.786Z" fill="#8B5CF6"/>
</g>
<path d="M66.3217 197.427L59.1923 222.385L52.0629 197.427C50.2203 190.981 46.7654 185.11 42.0244 180.369C37.2834 175.628 31.4126 172.173 24.966 170.33L0 163.192L24.9572 156.063C31.4038 154.22 37.2747 150.765 42.0157 146.024C46.7567 141.283 50.2115 135.413 52.0542 128.966L59.1923 104L66.3217 128.957C68.1644 135.404 71.6192 141.275 76.3602 146.016C81.1012 150.757 86.972 154.211 93.4186 156.054L118.385 163.192L93.4274 170.322C86.9808 172.164 81.11 175.619 76.369 180.36C71.628 185.101 68.1731 190.972 66.3305 197.419L66.3217 197.427Z" fill="#D340E9"/>
<path d="M619.613 824.351L616 837L612.387 824.351C611.453 821.084 609.702 818.108 607.299 815.706C604.896 813.303 601.921 811.552 598.653 810.618L586 807L598.649 803.387C601.916 802.453 604.892 800.702 607.294 798.299C609.697 795.896 611.448 792.921 612.382 789.653L616 777L619.613 789.649C620.547 792.916 622.298 795.892 624.701 798.294C627.104 800.697 630.079 802.448 633.347 803.382L646 807L633.351 810.613C630.084 811.547 627.108 813.298 624.706 815.701C622.303 818.104 620.552 821.079 619.618 824.347L619.613 824.351Z" fill="#D340E9"/>
<path d="M677.456 766.4L673 782L668.544 766.4C667.392 762.37 665.232 758.7 662.269 755.737C659.305 752.773 655.635 750.614 651.606 749.462L636 745L651.6 740.544C655.63 739.392 659.3 737.232 662.263 734.269C665.227 731.305 667.386 727.635 668.538 723.606L673 708L677.456 723.6C678.608 727.63 680.768 731.3 683.731 734.263C686.695 737.227 690.365 739.386 694.394 740.538L710 745L694.4 749.456C690.37 750.608 686.7 752.768 683.737 755.731C680.773 758.695 678.614 762.365 677.462 766.394L677.456 766.4Z" fill="#D340E9"/>
</svg>
